PathFileType	4	(X/Y/Z)	dyn.trc	
DataRate	CameraRate	NumFrames	NumMarkers	Units	OrigDataRate	OrigDataStartFrame	OrigNumFrames	
0.00	0.00	10	15	m	100.00	176	211	
Frame#	Time	RTT			RHF			RLM			RMM			RCA			RPT			RST			RVMB			RTN			RSMB			RFMB			RVMH			RSMH			RFMH			RPM			
		X1	Y1	Z1	X2	Y2	Z2	X3	Y3	Z3	X4	Y4	Z4	X5	Y5	Z5	X6	Y6	Z6	X7	Y7	Z7	X8	Y8	Z8	X9	Y9	Z9	X10	Y10	Z10	X11	Y11	Z11	X12	Y12	Z12	X13	Y13	Z13	X14	Y14	Z14	X15	Y15	Z15	

176	1.750	1.24993	0.45786	-0.08475	1.18528	0.49062	-0.04735	1.04743	0.11521	-0.11115	1.09649	0.12442	-0.17775	1.00155	0.08919	-0.17088	1.04119	0.09234	-0.11424	1.08289	0.09728	-0.17445	1.07816	0.07179	-0.08413	1.11601	0.08407	-0.15989	1.13230	0.09770	-0.09949	1.15146	0.07708	-0.12994	1.11708	0.05180	-0.05400	1.16831	0.05608	-0.07748	1.18567	0.05303	-0.10915	1.21485	0.03985	-0.09392 
177	1.760	1.25974	0.45834	-0.08562	1.19440	0.48927	-0.04803	1.06886	0.10930	-0.11099	1.11770	0.12010	-0.17770	1.02379	0.08173	-0.17076	1.06339	0.08631	-0.11406	1.10484	0.09247	-0.17432	1.10091	0.06701	-0.08388	1.13842	0.08037	-0.15966	1.15430	0.09475	-0.09918	1.17403	0.07466	-0.12958	1.14041	0.04857	-0.05361	1.19158	0.05446	-0.07700	1.20914	0.05197	-0.10867	1.23864	0.03965	-0.09336 
178	1.770	1.26935	0.45870	-0.08650	1.20334	0.48780	-0.04873	1.09049	0.10357	-0.11076	1.13900	0.11596	-0.17757	1.04625	0.07455	-0.17057	1.08581	0.08049	-0.11383	1.12693	0.08792	-0.17416	1.12383	0.06245	-0.08361	1.16093	0.07693	-0.15942	1.17640	0.09198	-0.09889	1.19669	0.07248	-0.12925	1.16388	0.04556	-0.05323	1.21493	0.05306	-0.07656	1.23263	0.05113	-0.10823	1.26245	0.03968	-0.09288 
179	1.780	1.27874	0.45896	-0.08740	1.21208	0.48622	-0.04946	1.11230	0.09809	-0.11048	1.16035	0.11204	-0.17736	1.06891	0.06768	-0.17030	1.10841	0.07492	-0.11355	1.14914	0.08366	-0.17396	1.14690	0.05815	-0.08332	1.18351	0.07378	-0.15916	1.19858	0.08940	-0.09860	1.21939	0.07058	-0.12893	1.18746	0.04280	-0.05286	1.23832	0.05189	-0.07617	1.25611	0.05055	-0.10786	1.28625	0.03997	-0.09250 
180	1.790	1.28794	0.45911	-0.08830	1.22064	0.48454	-0.05020	1.13425	0.09290	-0.11015	1.18172	0.10838	-0.17708	1.09171	0.06117	-0.16995	1.13116	0.06965	-0.11322	1.17142	0.07974	-0.17372	1.17009	0.05416	-0.08301	1.20612	0.07095	-0.15891	1.22081	0.08707	-0.09833	1.24212	0.06899	-0.12865	1.21112	0.04032	-0.05252	1.26172	0.05100	-0.07582	1.27956	0.05025	-0.10754	1.30999	0.04055	-0.09221 
181	1.800	1.29694	0.45915	-0.08921	1.22904	0.48276	-0.05097	1.15629	0.08804	-0.10979	1.20307	0.10500	-0.17674	1.11463	0.05506	-0.16953	1.15401	0.06473	-0.11285	1.19373	0.07617	-0.17345	1.19335	0.05052	-0.08269	1.22871	0.06849	-0.15865	1.24304	0.08501	-0.09808	1.26482	0.06773	-0.12839	1.23482	0.03816	-0.05219	1.28509	0.05041	-0.07553	1.30293	0.05027	-0.10729	1.33364	0.04146	-0.09203 
182	1.810	1.30577	0.45911	-0.09013	1.23727	0.48090	-0.05176	1.17837	0.08356	-0.10938	1.22436	0.10194	-0.17634	1.13760	0.04938	-0.16905	1.17690	0.06019	-0.11243	1.21602	0.07299	-0.17315	1.21664	0.04727	-0.08235	1.25125	0.06641	-0.15840	1.26523	0.08325	-0.09785	1.28745	0.06685	-0.12816	1.25851	0.03637	-0.05189	1.30838	0.05017	-0.07530	1.32617	0.05062	-0.10711	1.35715	0.04272	-0.09196 
183	1.820	1.31442	0.45898	-0.09105	1.24535	0.47898	-0.05257	1.20043	0.07950	-0.10895	1.24555	0.09923	-0.17590	1.16057	0.04416	-0.16850	1.19979	0.05607	-0.11198	1.23823	0.07023	-0.17282	1.23990	0.04445	-0.08200	1.27367	0.06474	-0.15815	1.28733	0.08185	-0.09766	1.30997	0.06636	-0.12797	1.28214	0.03498	-0.05161	1.33156	0.05030	-0.07512	1.34924	0.05135	-0.10700	1.38048	0.04437	-0.09198 
184	1.830	1.32291	0.45879	-0.09199	1.25329	0.47702	-0.05340	1.22243	0.07590	-0.10849	1.26659	0.09690	-0.17544	1.18347	0.03944	-0.16790	1.22260	0.05242	-0.11149	1.26031	0.06789	-0.17247	1.26307	0.04209	-0.08164	1.29592	0.06351	-0.15792	1.30928	0.08083	-0.09750	1.33231	0.06630	-0.12782	1.30566	0.03401	-0.05137	1.35455	0.05084	-0.07501	1.37209	0.05247	-0.10697	1.40357	0.04642	-0.09212 
185	1.840	1.33125	0.45855	-0.09293	1.26112	0.47503	-0.05425	1.24429	0.07277	-0.10801	1.28744	0.09498	-0.17498	1.20625	0.03522	-0.16726	1.24527	0.04925	-0.11098	1.28220	0.06600	-0.17211	1.28610	0.04022	-0.08128	1.31794	0.06272	-0.15770	1.33103	0.08022	-0.09738	1.35441	0.06667	-0.12771	1.32901	0.03351	-0.05116	1.37731	0.05182	-0.07496	1.39465	0.05401	-0.10701	1.42636	0.04890	-0.09236 
